<?xml version="1.0" standalone="no"?>
<!DOCTYPE svg PUBLIC "-//W3C//DTD SVG 20010904//EN"
 "http://www.w3.org/TR/2001/REC-SVG-20010904/DTD/svg10.dtd">
<svg version="1.0" xmlns="http://www.w3.org/2000/svg"
 width="1038.000000pt" height="1038.000000pt" viewBox="0 0 1038.000000 1038.000000"
 preserveAspectRatio="xMidYMid meet">
<metadata>
Created by potrace 1.14, written by Peter Selinger 2001-2017
</metadata>
<g transform="translate(0.000000,1038.000000) scale(0.100000,-0.100000)"
fill="#000000" stroke="none">
<path d="M5649 8183 c-50 -4 -61 -9 -96 -42 -91 -90 -81 -231 22 -299 l44 -29
303 -6 c285 -6 511 -25 528 -44 11 -12 122 -288 226 -563 64 -170 89 -247 81
-251 -13 -7 -1700 -29 -2218 -29 -185 0 -377 3 -427 6 l-91 7 -25 56 c-41 93
-68 172 -61 179 9 10 367 20 738 21 l317 1 -2 238 -3 237 -1307 3 -1308 2 0
-251 0 -252 123 6 c126 7 891 -8 962 -19 l41 -6 41 -106 c22 -59 48 -130 58
-158 l18 -50 -78 -140 c-117 -208 -322 -545 -461 -756 l-123 -188 -68 26
c-178 67 -412 110 -662 121 -134 5 -157 4 -279 -21 -636 -130 -1076 -464
-1348 -1021 -72 -148 -103 -247 -133 -425 -84 -488 17 -951 299 -1372 167
-250 507 -513 821 -634 392 -151 911 -151 1290 1 574 231 938 644 1094 1241
13 53 27 99 29 101 2 2 212 -10 468 -27 427 -28 468 -29 521 -15 115 30 206
91 253 170 34 59 57 175 50 252 l-6 61 307 288 c431 403 927 871 1265 1192
157 149 291 272 296 272 18 0 75 -146 87 -226 l6 -42 -93 -63 c-213 -143 -336
-255 -465 -424 -355 -467 -460 -975 -318 -1535 60 -238 115 -359 253 -560 293
-427 652 -668 1147 -767 130 -26 592 -26 712 0 275 59 571 205 790 388 209
175 411 454 499 689 159 422 179 870 54 1242 -88 262 -234 494 -468 740 -211
221 -602 415 -982 485 -130 24 -543 24 -670 0 -47 -9 -88 -13 -91 -9 -3 4 -43
106 -89 227 -188 498 -481 1230 -703 1755 l-125 295 -38 6 c-130 22 -782 36
-1005 22z m1312 -1680 c6 -16 12 -57 13 -93 l1 -65 -245 -230 c-520 -487
-1045 -987 -1508 -1434 -181 -175 -246 -231 -254 -223 -6 6 -15 40 -19 75 -6
46 -42 149 -129 368 -181 452 -630 1608 -630 1622 0 4 621 7 1380 7 l1380 0
11 -27z m-3009 -528 c213 -511 626 -1570 616 -1580 -8 -8 -302 -25 -430 -25
-124 0 -128 1 -133 23 -69 313 -143 498 -283 708 -107 160 -290 357 -411 441
l-23 16 204 321 c111 176 225 355 251 398 l49 77 30 -69 c16 -39 75 -178 130
-310z m4383 -479 c428 -71 766 -314 1010 -726 62 -105 103 -223 137 -395 31
-154 31 -396 0 -542 -60 -280 -210 -566 -379 -722 -215 -199 -406 -309 -653
-373 -287 -75 -683 -37 -936 90 -536 269 -814 720 -814 1322 0 120 4 162 25
247 69 285 191 501 399 708 67 66 156 144 198 173 l77 53 16 -38 c48 -113 358
-873 443 -1088 109 -273 115 -283 205 -306 38 -11 56 -11 94 0 77 20 110 51
123 118 7 31 10 78 7 103 -3 25 -49 155 -102 290 -119 302 -358 913 -390 998
l-24 62 37 16 c20 9 60 20 87 24 70 12 332 3 440 -14z m-5850 -10 c102 -19
214 -45 232 -55 16 -8 -343 -607 -647 -1081 -99 -154 -110 -189 -90 -286 10
-50 20 -66 59 -105 72 -70 106 -75 571 -99 854 -43 994 -51 997 -54 7 -7 -69
-203 -118 -306 -172 -360 -454 -616 -799 -725 -160 -50 -261 -66 -476 -72
-195 -5 -204 -5 -305 21 -472 122 -815 423 -993 872 -82 207 -106 518 -60 782
57 334 247 630 548 854 169 126 294 188 511 254 76 23 91 24 280 20 125 -2
234 -10 290 -20z m770 -431 c143 -141 232 -283 295 -471 23 -66 60 -222 60
-248 0 -7 -649 -12 -856 -7 l-241 6 229 360 c126 198 252 395 279 438 l50 78
47 -33 c25 -18 87 -73 137 -123z"/>
</g>
</svg>
